<mxfile host="app.diagrams.net" modified="2024-04-21T04:24:33.824Z" agent="Mozilla/5.0 (Windows NT 10.0; Win64; x64) AppleWebKit/537.36 (KHTML, like Gecko) Chrome/123.0.0.0 Safari/537.36" etag="ONv3J9phP4TQfN3jO6-C" version="24.2.7" type="github">
  <diagram name="Page-1" id="y3igCkvdVwU5prdl0R_7">
    <mxGraphModel dx="3124" dy="1060" grid="1" gridSize="10" guides="1" tooltips="1" connect="1" arrows="1" fold="1" page="1" pageScale="1" pageWidth="4500" pageHeight="3000" math="0" shadow="0">
      <root>
        <mxCell id="0" />
        <mxCell id="1" parent="0" />
        <mxCell id="pbiuiw4NO3I8t4UeIVkg-1" value="&lt;font style=&quot;font-size: 10px;&quot;&gt;你好&lt;/font&gt;" style="whiteSpace=wrap;html=1;aspect=fixed;" parent="1" vertex="1">
          <mxGeometry x="430" y="430" width="30" height="30" as="geometry" />
        </mxCell>
      </root>
    </mxGraphModel>
  </diagram>
</mxfile>
